# xmcd
#
# Track frame offsets: 
#        150
#        15651
#        33369
#        43949
#        54450
#        73453
#        93382
#        112429
#        130517
#        158789
#
# Disc length: 3065 seconds
#
# Revision: 0
# Processed by: cddbd v1.5.2PL0 Copyright (c) Steve Scherf et al.
# Submitted via: ExactAudioCopy v1.0b1
#
DISCID=8c0bf70a
DTITLE=Clay Ivory - Live and Uncut
DYEAR=2000
DGENRE=Christian Country
TTITLE0=Gonna Lift Him Up
TTITLE1=Worthy
TTITLE2=Shout
TTITLE3=I Come to Praise Him
TTITLE4=Jesus Will Love You
TTITLE5=Guilty
TTITLE6=If I’m So Bad
TTITLE7=Can’t Hide it Baby
TTITLE8=East Side of Town
TTITLE9=5 Long Years
EXTD=
EXTT0=
EXTT1=
EXTT2=
EXTT3=
EXTT4=
EXTT5=
EXTT6=
EXTT7=
EXTT8=
EXTT9=
PLAYORDER=
